<svg version="1.1" xmlns="http://www.w3.org/2000/svg" xmlns:xlink="http://www.w3.org/1999/xlink" x="0px"
	 y="0px" viewBox="0 0 174.707 35.73" enable-background="new 0 0 174.707 35.73"
	 xml:space="preserve">
<g>
	<path fill="#4B6F97" d="M173.852,10.459c-0.571-0.557-1.634-0.836-3.189-0.836h-10.917c-1.557,0-2.62,0.279-3.19,0.836
		c-0.569,0.559-0.854,1.586-0.854,3.092v8.672c0,1.529,0.277,2.561,0.836,3.09c0.557,0.533,1.627,0.797,3.209,0.797h10.917
		c1.556,0,2.618-0.271,3.189-0.816c0.571-0.543,0.855-1.568,0.855-3.07v-8.672C174.707,12.045,174.423,11.018,173.852,10.459z
		 M171.595,23.627h-12.783V12.076h12.783V23.627z M137.158,9.623H125.95c-1.789,0-3.014,0.33-3.674,0.99
		c-0.661,0.66-0.99,1.908-0.99,3.746v7.016c0,1.861,0.329,3.117,0.99,3.764c0.662,0.648,1.888,0.971,3.677,0.971h14.318V4.355
		h-3.113V9.623z M137.158,23.418h-12.882V12.525h12.882V23.418z M97.132,10.592c-0.661,0.648-0.992,1.904-0.992,3.768v7.016
		c0,1.836,0.331,3.084,0.991,3.744c0.66,0.662,1.886,0.99,3.674,0.99h11.21v5.268h3.112V9.623h-14.318
		C99.021,9.623,97.793,9.945,97.132,10.592z M112.015,23.209H99.132V12.314h12.883V23.209z M146.431,7.498h3.11V4.385h-3.11V7.498z
		 M146.431,26.109h3.11V9.338h-3.11V26.109z M85.314,9.623h-9.718h-0.001c-1.779,0.004-2.999,0.332-3.658,0.99
		c-0.661,0.66-0.99,1.908-0.99,3.746v7.016c0,1.836,0.329,3.084,0.99,3.744c0.662,0.662,1.887,0.99,3.674,0.99h13.865v-2.9H74.059
		v-3.904h11.252c1.791,0,3.018-0.322,3.679-0.969c0.662-0.646,0.993-1.902,0.993-3.768v-0.209c0-1.838-0.331-3.086-0.993-3.746
		C88.328,9.953,87.104,9.623,85.314,9.623z M86.988,16.613h-12.93v-0.287v-3.801h12.93V16.613z M60.115,14.381H47.462V8.754h16.835
		V6.061H49.139c-1.789,0-3.016,0.324-3.677,0.973c-0.661,0.646-0.992,1.9-0.992,3.766v1.746c0,1.84,0.331,3.088,0.992,3.748
		s1.886,0.99,3.675,0.99h12.598v6.014H45.065v2.813h15.052c1.816,0,3.049-0.328,3.697-0.99c0.648-0.66,0.975-1.908,0.975-3.748
		v-2.252c0-1.814-0.326-3.057-0.975-3.729C63.166,14.717,61.934,14.381,60.115,14.381z"/>
	<path fill="#4B6F97" d="M11.943,24.211c-1.698-1.584-2.764-3.842-2.764-6.346c0-4.787,3.897-8.686,8.688-8.686
		c1.628,0,3.151,0.451,4.455,1.234l0.594-0.707c-0.426-0.266-0.871-0.5-1.338-0.699l2.514-6.904c1.274,0.502,2.47,1.16,3.571,1.945
		l0.595-0.707C25.328,1.24,21.739,0,17.867,0C8.016,0,0,8.014,0,17.867c0,5.648,2.637,10.693,6.742,13.969L23.789,11.52
		c1.699,1.586,2.764,3.846,2.764,6.348c0,4.789-3.896,8.686-8.686,8.686c-1.629,0-3.154-0.453-4.458-1.234l-0.593,0.705
		c0.426,0.266,0.871,0.502,1.338,0.701l-2.514,6.908c-1.275-0.508-2.471-1.166-3.572-1.951l-0.594,0.709
		c2.93,2.102,6.519,3.34,10.393,3.34c9.851,0,17.865-8.012,17.865-17.863c0-5.65-2.637-10.695-6.743-13.971L11.943,24.211z
		 M18.324,0.924c1.709,0.045,3.357,0.346,4.905,0.863l-2.513,6.906c-0.762-0.236-1.564-0.379-2.393-0.42V0.924z M17.407,0.924v7.35
		c-0.828,0.041-1.63,0.184-2.392,0.42l-2.514-6.904C14.051,1.27,15.699,0.969,17.407,0.924z M11.641,2.104l2.514,6.904
		c-0.754,0.318-1.457,0.73-2.099,1.221L7.332,4.6C8.629,3.568,10.078,2.721,11.641,2.104z M6.631,5.189l4.723,5.629
		c-0.596,0.551-1.119,1.174-1.561,1.857L3.428,9C4.305,7.578,5.387,6.291,6.631,5.189z M2.967,9.795l6.367,3.676
		c-0.369,0.711-0.652,1.475-0.832,2.277L1.26,14.473C1.598,12.813,2.18,11.24,2.967,9.795z M0.918,17.867
		c0-0.848,0.063-1.678,0.184-2.492l7.241,1.277c-0.05,0.398-0.079,0.803-0.079,1.215s0.028,0.814,0.079,1.213l-7.241,1.277
		C0.98,19.545,0.918,18.713,0.918,17.867z M11.354,24.914l-4.721,5.629c-1.244-1.105-2.328-2.389-3.205-3.811l6.365-3.676
		C10.234,23.742,10.76,24.363,11.354,24.914z M2.967,25.939c-0.787-1.447-1.369-3.02-1.707-4.68l7.242-1.275
		c0.181,0.801,0.463,1.566,0.832,2.279L2.967,25.939z M17.407,34.809c-1.71-0.045-3.356-0.346-4.905-0.865l2.514-6.906
		c0.762,0.236,1.563,0.383,2.392,0.42V34.809z M18.324,34.809v-7.352c0.83-0.037,1.631-0.184,2.393-0.42l2.514,6.906
		C21.682,34.463,20.035,34.764,18.324,34.809z M24.093,33.633l-2.515-6.908c0.754-0.318,1.458-0.73,2.1-1.219l4.725,5.629
		C27.105,32.166,25.656,33.01,24.093,33.633z M29.104,30.543l-4.723-5.629c0.594-0.551,1.119-1.174,1.56-1.857l6.365,3.676
		C31.429,28.154,30.348,29.438,29.104,30.543z M32.766,25.938L26.4,22.264c0.369-0.713,0.65-1.479,0.831-2.281l7.243,1.277
		C34.135,22.92,33.553,24.492,32.766,25.938z M34.815,17.867c-0.001,0.846-0.063,1.676-0.184,2.49l-7.241-1.277
		c0.051-0.398,0.08-0.803,0.08-1.213c0-0.412-0.029-0.816-0.08-1.215l7.241-1.277C34.752,16.189,34.815,17.02,34.815,17.867z
		 M34.475,14.473l-7.242,1.275c-0.182-0.803-0.463-1.566-0.832-2.279l6.365-3.676C33.553,11.24,34.135,12.813,34.475,14.473z
		 M32.306,9l-6.366,3.676c-0.44-0.684-0.967-1.307-1.561-1.857l4.723-5.629C30.346,6.295,31.429,7.578,32.306,9z"/>
</g>
</svg>
